<?xml version="1.0" encoding="UTF-8"?>
<svg xmlns="http://www.w3.org/2000/svg" xmlns:xlink="http://www.w3.org/1999/xlink" width="200.39px" height="106.94px" viewBox="0 0 200.39 106.94" style="enable-background:new 0 0 200.39 106.94;" xml:space="preserve">
<style type="text/css">
	.st0{fill:#0060A9;}
	.st1{fill:none;stroke:#0060A9;stroke-width:0.11;stroke-miterlimit:3.864;}
	.st2{fill:#00A1B1;}
	.st3{fill:none;stroke:#00A1B1;stroke-width:0.11;stroke-miterlimit:3.864;}
	.st4{fill:none;stroke:#0060A9;stroke-width:0.26;stroke-miterlimit:3.864;}
</style>
<g>
	<path class="st0" d="M32.26,7.92c0,0,6.49-0.44,10.94,3.6c1.94,1.76,2.98,2.84,4.6,4.9c2.57,3.26,3.53,5.43,5.41,9.16   c2.13,4.24,3.45,6.28,5.64,10.3c2.61,4.79,3.54,7.83,6.64,12.32c2.96,4.29,4.47,7.11,8.71,10.13c3.2,2.28,5.24,3.65,9.12,4.26   c3.79,0.59,6.22,0.29,9.77-1.17c3.04-1.25,4.69-2.43,6.85-4.91c-4.42-0.29-7.09-0.85-10.94-3.04c-3.99-2.27-7.92-5.56-10.39-9.34   c-5.76-8.81-10.49-20.2-16.36-27.95c-4.81-6.35-7.19-8.68-13.37-11.96c-2.62-1.39-7.18-2.42-10.34-1.62   C36.31,3.17,33.56,5.38,32.26,7.92"/>
	<path class="st1" d="M32.21,7.9c0,0,6.5-0.44,10.96,3.61c1.94,1.76,2.98,2.84,4.61,4.9c2.58,3.26,3.54,5.43,5.42,9.17   c2.13,4.25,3.45,6.28,5.64,10.31c2.61,4.8,3.54,7.83,6.65,12.33c2.97,4.29,4.47,7.12,8.73,10.14c3.2,2.28,5.25,3.65,9.13,4.26   c3.8,0.59,6.23,0.29,9.79-1.17c3.04-1.25,4.69-2.44,6.85-4.91c-4.43-0.29-7.1-0.85-10.96-3.04c-3.99-2.27-7.93-5.56-10.4-9.35   c-5.77-8.82-10.5-20.22-16.38-27.97c-4.82-6.35-7.2-8.68-13.39-11.97c-2.62-1.39-7.19-2.42-10.35-1.62   C36.28,3.15,33.51,5.36,32.21,7.9z"/>
	<path class="st2" d="M78.49,34.97c0,0,0.55,1.99,2.13,3.47c1.07,1.01,1.82,1.47,3.17,2.05c1.82,0.79,3.02,0.95,5,0.93   c2.1-0.02,3.31-0.4,5.27-1.15c2.37-0.9,3.58-1.79,5.55-3.38c3.84-3.1,5.06-5.9,7.48-10.2c3.53-6.29,6.07-12.26,11.26-18.11   c2.84-3.2,8.86-6.47,8.86-6.47c-1.54-1.36-2.94-1.42-4.97-1.77c-2.82-0.48-4.54-0.19-7.32,0.51c-4.28,1.08-6.4,2.85-9.8,5.68   c-3.29,2.73-4.65,4.84-7.18,8.28c-3.24,4.41-3.61,7.88-7.1,12.1c-1.65,2-2.54,3.23-4.61,4.79c-1.64,1.23-2.63,1.93-4.56,2.61   C79.82,34.97,78.49,34.97,78.49,34.97"/>
	<path class="st3" d="M78.46,34.99c0,0,0.55,1.99,2.13,3.47c1.07,1.01,1.82,1.47,3.17,2.06c1.82,0.79,3.02,0.95,5.01,0.93   c2.11-0.02,3.31-0.4,5.28-1.15c2.37-0.91,3.58-1.79,5.56-3.38c3.85-3.1,5.07-5.91,7.49-10.22c3.54-6.3,6.08-12.27,11.28-18.13   c2.84-3.21,8.88-6.48,8.88-6.48c-1.55-1.36-2.95-1.42-4.98-1.77c-2.82-0.48-4.55-0.19-7.33,0.51c-4.29,1.08-6.41,2.86-9.81,5.68   c-3.29,2.73-4.65,4.84-7.19,8.29c-3.24,4.42-3.62,7.89-7.11,12.12c-1.65,2-2.54,3.24-4.61,4.8c-1.64,1.23-2.63,1.93-4.56,2.61   C79.79,34.99,78.46,34.99,78.46,34.99z"/>
	<path class="st2" d="M86.22,45.46c0,0,5.41,6.62,15.9,6.18c5.99-0.25,10.27-3.31,15.02-8.06c0.91-0.9,1.82-2.44,2.87-4.09   c1.27-2,1.83-3.23,2.98-5.3c2.18-3.91,3.11-5.75,5.52-10.05c3.53-6.29,5.41-9.05,10.6-14.91c2.84-3.2,11.01-7.1,11.01-7.1   c-2.17-1.18-2.95-1.39-4.97-1.77c-3-0.56-4.82-0.26-7.81,0.37c-4.86,1.01-7.5,2.63-11.37,5.74c-3.02,2.43-4.33,4.28-6.63,7.4   c-2.79,3.79-3.63,6.41-5.96,10.49c-1.64,2.87-2.97,5.1-4.23,7.36c-2.28,4.12-5.19,7.51-6.81,8.76   C94.06,46.9,86.22,45.46,86.22,45.46"/>
	<path class="st3" d="M86.16,45.48c0,0,5.42,6.63,15.93,6.19c6-0.25,10.29-3.32,15.05-8.07c0.91-0.91,1.83-2.45,2.88-4.09   c1.28-2,1.83-3.23,2.99-5.31c2.18-3.91,3.11-5.75,5.53-10.06c3.54-6.3,5.42-9.06,10.62-14.92c2.84-3.21,11.03-7.11,11.03-7.11   c-2.18-1.18-2.95-1.39-4.98-1.77c-3-0.56-4.83-0.26-7.82,0.37c-4.87,1.02-7.51,2.63-11.39,5.75c-3.02,2.43-4.34,4.28-6.64,7.41   c-2.79,3.79-3.63,6.41-5.97,10.5c-1.65,2.88-2.98,5.1-4.24,7.37c-2.29,4.12-5.2,7.51-6.82,8.77   C94.01,46.92,86.16,45.48,86.16,45.48z"/>
	<path class="st0" d="M168.45,8.2c0,0-6.49-0.44-10.94,3.6c-1.94,1.76-2.98,2.84-4.6,4.9c-2.57,3.26-3.54,5.43-5.41,9.16   c-2.13,4.24-3.45,6.28-5.64,10.3c-2.6,4.79-3.54,7.83-6.64,12.32c-2.96,4.29-4.47,7.11-8.71,10.13c-3.2,2.28-5.24,3.65-9.12,4.26   c-3.79,0.59-6.22,0.29-9.77-1.17c-3.04-1.25-4.69-2.43-6.85-4.91c4.42-0.29,7.09-0.85,10.94-3.04c3.99-2.27,7.92-5.56,10.39-9.34   c5.76-8.81,10.49-20.21,16.36-27.95c4.81-6.35,7.19-8.68,13.37-11.96c2.62-1.39,7.18-2.42,10.33-1.62   C164.39,3.45,167.15,5.66,168.45,8.2"/>
	<path class="st1" d="M168.49,8.18c0,0-6.5-0.44-10.96,3.61c-1.94,1.76-2.98,2.84-4.61,4.9c-2.58,3.26-3.54,5.43-5.42,9.17   c-2.13,4.25-3.45,6.28-5.64,10.31c-2.61,4.8-3.54,7.83-6.65,12.33c-2.97,4.29-4.47,7.12-8.73,10.14c-3.2,2.28-5.25,3.65-9.13,4.26   c-3.8,0.59-6.23,0.29-9.79-1.17c-3.04-1.25-4.69-2.43-6.86-4.91c4.43-0.29,7.1-0.85,10.96-3.04c3.99-2.27,7.93-5.56,10.41-9.35   c5.77-8.82,10.5-20.22,16.38-27.97c4.82-6.35,7.2-8.68,13.39-11.97c2.62-1.39,7.19-2.42,10.35-1.62   C164.43,3.43,167.19,5.64,168.49,8.18z"/>
	<path class="st0" d="M10.86,106.7c0.93-0.06,1.89-0.15,2.82-0.15c0.93,0,1.86,0.09,2.79,0.15c-2.26-3.5-4.61-7.03-6.6-10.53   c3.07-0.78,4.8-2.7,4.8-5.7c0-1.83-0.78-3.19-2.01-4.09c-1.08-0.78-2.23-1.05-5.36-1.05c-2.11,0-3.44,0.15-4.55,0.15   c-1.02,0-1.86-0.09-2.54-0.15c0.19,2.72,0.25,5.11,0.25,8.58v4.21c0,3.47-0.06,5.86-0.25,8.58c0.68-0.06,1.52-0.15,2.54-0.15   c1.02,0,1.86,0.09,2.54,0.15c-0.19-2.73-0.25-5.11-0.25-8.58v-1.27h0.28L10.86,106.7z M9.93,91.15c0,2.91-1.49,4.43-4.21,4.43   c-0.22,0-0.43-0.03-0.68-0.06c0-2.82,0.03-5.61,0.09-8.43C8.51,87.09,9.93,87.49,9.93,91.15"/>
	<path class="st4" d="M10.91,106.77c0.94-0.06,1.91-0.15,2.85-0.15c0.94,0,1.88,0.09,2.82,0.15c-2.29-3.52-4.67-7.07-6.67-10.6   c3.1-0.78,4.86-2.71,4.86-5.74c0-1.84-0.78-3.21-2.04-4.11c-1.1-0.78-2.26-1.06-5.42-1.06c-2.13,0-3.48,0.15-4.6,0.15   c-1.03,0-1.88-0.09-2.57-0.15C0.33,88,0.39,90.4,0.39,93.89v4.24c0,3.49-0.06,5.89-0.25,8.63c0.69-0.06,1.53-0.15,2.57-0.15   c1.03,0,1.88,0.09,2.57,0.15c-0.19-2.74-0.25-5.14-0.25-8.63v-1.28h0.28L10.91,106.77z M9.97,91.12c0,2.93-1.5,4.46-4.26,4.46   c-0.22,0-0.44-0.03-0.69-0.06c0-2.84,0.03-5.64,0.09-8.48C8.53,87.04,9.97,87.44,9.97,91.12z"/>
	<path class="st0" d="M29.12,85.17c-0.4,0.06-0.77,0.16-1.18,0.16c-0.4,0-0.78-0.09-1.18-0.16c-2.66,7.06-7.31,18.09-8.83,21.53   c0.59-0.06,1.05-0.15,1.55-0.15c0.5,0,0.96,0.09,1.46,0.15c0.59-2.14,1.27-4.24,2.11-6.35c1.08-0.03,2.14-0.06,3.22-0.06   c1.33,0,2.63,0.03,3.97,0.06c0.77,2.11,1.49,4.25,2.14,6.35c0.87-0.06,1.76-0.15,2.63-0.15c0.87,0,1.74,0.09,2.73,0.15   C35.38,101.65,31.75,92.23,29.12,85.17 M23.85,98.52c0.9-2.51,1.86-4.96,2.91-7.37c0.99,2.42,1.86,4.86,2.76,7.37H23.85z"/>
	<path class="st4" d="M29.13,85.1c-0.41,0.06-0.78,0.16-1.19,0.16c-0.41,0-0.78-0.1-1.19-0.16c-2.69,7.11-7.38,18.21-8.91,21.67   c0.59-0.06,1.06-0.16,1.56-0.16c0.5,0,0.97,0.09,1.47,0.16c0.59-2.15,1.28-4.27,2.13-6.39c1.09-0.03,2.16-0.06,3.25-0.06   c1.34,0,2.66,0.03,4,0.06c0.78,2.12,1.5,4.27,2.16,6.39c0.88-0.06,1.78-0.16,2.66-0.16c0.88,0,1.75,0.09,2.75,0.16   C35.45,101.69,31.79,92.21,29.13,85.1z M23.82,98.54c0.91-2.52,1.88-4.99,2.94-7.42c1,2.43,1.88,4.89,2.78,7.42H23.82z"/>
	<path class="st0" d="M42.08,91.49c0,6.32-0.46,14.31-0.62,15.21c0.46-0.09,0.96-0.15,1.43-0.15c0.46,0,0.96,0.06,1.45,0.15   c-0.09-1.15-0.19-2.88-0.19-7.84c0-2.33,0-4.9,0.06-7.22c4.77,5.02,9.29,10.04,13.54,15.05c0.37-0.09,0.77-0.15,1.21-0.15   c0.43,0,0.84,0.06,1.27,0.15c0-8.24,0-12.36,0.49-21.37c-0.46,0.09-0.93,0.15-1.39,0.15c-0.46,0-0.93-0.06-1.39-0.15   c0.22,1.39,0.22,9.82,0.22,14.74c-4.55-4.93-8.98-9.82-13.44-14.74c-0.47,0.09-0.93,0.15-1.39,0.15c-0.47,0-0.93-0.06-1.4-0.15   C41.95,86.81,42.08,88.7,42.08,91.49"/>
	<path class="st4" d="M42.01,91.46c0,6.36-0.47,14.41-0.62,15.32c0.47-0.09,0.97-0.16,1.43-0.16c0.47,0,0.97,0.06,1.47,0.16   c-0.1-1.15-0.19-2.9-0.19-7.89c0-2.34,0-4.93,0.06-7.27c4.8,5.05,9.36,10.11,13.63,15.16c0.37-0.09,0.78-0.16,1.22-0.16   s0.84,0.06,1.28,0.16c0-8.3,0-12.45,0.5-21.53c-0.47,0.09-0.94,0.15-1.4,0.15c-0.47,0-0.94-0.06-1.4-0.15   c0.22,1.4,0.22,9.89,0.22,14.85c-4.59-4.96-9.05-9.89-13.54-14.85c-0.47,0.09-0.94,0.15-1.4,0.15c-0.47,0-0.94-0.06-1.41-0.15   C41.88,86.75,42.01,88.65,42.01,91.46z"/>
	<path class="st0" d="M66.74,98.12c0,3.47-0.06,5.86-0.25,8.58c0.68-0.06,1.52-0.15,2.54-0.15c1.61,0,3.72,0.15,6.82,0.15   c5.82,0,10.72-4.49,10.72-11.31c0-7.81-4.86-10.07-11.93-10.07c-2.73,0-4.24,0.15-5.61,0.15c-1.02,0-1.86-0.09-2.54-0.15   c0.19,2.73,0.25,5.11,0.25,8.58V98.12z M71.33,93.29c0-1.67,0-5.45,0.03-6.04c0.96-0.09,1.74-0.15,3.22-0.15   c4.28,0,7.09,3.16,7.09,8.24c0,6.44-2.94,9.6-7.59,9.6c-1.27,0-2.11-0.06-2.73-0.09c-0.03-0.59-0.03-4.37-0.03-6.04V93.29z"/>
	<path class="st4" d="M66.68,98.13c0,3.49-0.06,5.89-0.25,8.63c0.69-0.06,1.53-0.15,2.56-0.15c1.62,0,3.74,0.15,6.86,0.15   c5.86,0,10.78-4.52,10.78-11.38c0-7.86-4.89-10.13-12-10.13c-2.74,0-4.27,0.15-5.64,0.15c-1.03,0-1.87-0.09-2.56-0.15   c0.19,2.74,0.25,5.14,0.25,8.63V98.13z M71.29,93.27c0-1.68,0-5.49,0.03-6.08c0.97-0.09,1.75-0.15,3.24-0.15   c4.3,0,7.14,3.18,7.14,8.29c0,6.48-2.96,9.66-7.64,9.66c-1.28,0-2.12-0.06-2.74-0.1c-0.03-0.59-0.03-4.39-0.03-6.08V93.27z"/>
	<path class="st0" d="M112.23,91.49c1.86,5.08,3.56,10.13,4.89,15.21c0.53-0.06,1.09-0.15,1.61-0.15c0.53,0,1.05,0.09,1.58,0.15   c1.98-6.85,6.23-18.99,7.06-21.37c-0.5,0.09-0.96,0.15-1.43,0.15c-0.4,0-0.87-0.06-1.3-0.15c-0.56,2.45-3,10.44-4.59,15.64h-0.06   c-1.11-4.09-4.34-12.89-4.89-15.64c-0.53,0.09-1.02,0.15-1.55,0.15c-0.53,0-1.02-0.06-1.55-0.15c-0.87,2.88-3.5,10.44-5.33,15.64   h-0.06c-1.18-4.34-2.79-10.35-4.06-15.64c-0.84,0.09-1.67,0.15-2.51,0.15s-1.7-0.06-2.6-0.15c0.46,1.33,4.89,15.95,6.23,21.37   c0.53-0.06,1.08-0.15,1.61-0.15c0.53,0,1.05,0.09,1.58,0.15c1.3-4.37,3.84-11,5.3-15.21H112.23z"/>
	<path class="st4" d="M112.23,91.45c1.87,5.11,3.58,10.2,4.92,15.31c0.53-0.06,1.09-0.15,1.62-0.15c0.53,0,1.06,0.09,1.59,0.15   c1.99-6.89,6.26-19.12,7.11-21.52c-0.5,0.09-0.97,0.15-1.43,0.15c-0.4,0-0.87-0.06-1.31-0.15c-0.56,2.46-3.02,10.51-4.61,15.75   h-0.06c-1.12-4.12-4.36-12.97-4.92-15.75c-0.53,0.09-1.03,0.15-1.56,0.15c-0.53,0-1.03-0.06-1.56-0.15   c-0.87,2.9-3.52,10.51-5.36,15.75h-0.06c-1.18-4.37-2.81-10.42-4.08-15.75c-0.84,0.09-1.68,0.15-2.52,0.15   c-0.84,0-1.71-0.06-2.62-0.15c0.47,1.34,4.92,16.06,6.26,21.52c0.53-0.06,1.09-0.15,1.62-0.15c0.53,0,1.06,0.09,1.59,0.15   c1.31-4.4,3.86-11.07,5.33-15.31H112.23z"/>
	<path class="st0" d="M138.51,85.17c-0.4,0.06-0.77,0.16-1.18,0.16c-0.4,0-0.78-0.09-1.18-0.16c-2.66,7.06-7.31,18.09-8.83,21.53   c0.59-0.06,1.05-0.15,1.55-0.15c0.5,0,0.96,0.09,1.45,0.15c0.59-2.14,1.27-4.24,2.11-6.35c1.09-0.03,2.14-0.06,3.22-0.06   c1.33,0,2.63,0.03,3.96,0.06c0.78,2.11,1.49,4.25,2.14,6.35c0.87-0.06,1.77-0.15,2.63-0.15c0.87,0,1.74,0.09,2.73,0.15   C144.77,101.65,141.14,92.23,138.51,85.17 M133.24,98.52c0.9-2.51,1.86-4.96,2.91-7.37c0.99,2.42,1.86,4.86,2.76,7.37H133.24z"/>
	<path class="st4" d="M138.52,85.1c-0.41,0.06-0.78,0.16-1.19,0.16c-0.41,0-0.78-0.09-1.19-0.16c-2.69,7.11-7.38,18.21-8.92,21.67   c0.59-0.06,1.07-0.16,1.57-0.16s0.97,0.09,1.47,0.16c0.59-2.15,1.28-4.27,2.13-6.39c1.09-0.03,2.16-0.06,3.25-0.06   c1.35,0,2.66,0.03,4,0.06c0.78,2.12,1.5,4.27,2.16,6.39c0.88-0.06,1.78-0.16,2.66-0.16c0.88,0,1.75,0.09,2.75,0.16   C144.84,101.69,141.18,92.21,138.52,85.1z M133.21,98.54c0.91-2.52,1.88-4.99,2.94-7.42c1,2.43,1.88,4.89,2.78,7.42H133.21z"/>
	<path class="st0" d="M153.15,98.12c0,3.47-0.06,5.86-0.25,8.58c0.68-0.06,1.52-0.15,2.54-0.15c1.02,0,1.86,0.09,2.54,0.15   c-0.19-2.72-0.25-5.11-0.25-8.58v-7.74c0-1.18,0-2.29,0.06-2.73c1.24,0,3.84,0.19,5.51,0.4c-0.09-0.46-0.15-0.9-0.15-1.36   c0-0.46,0.06-0.9,0.15-1.36c-2.63,0.09-4.03,0.15-7.87,0.15c-3.84,0-5.24-0.06-8.05-0.15c0.09,0.46,0.15,0.9,0.15,1.36   c0,0.46-0.06,0.9-0.15,1.36c1.86-0.22,4.46-0.4,5.67-0.4c0.09,0.43,0.09,1.55,0.09,2.73V98.12z"/>
	<path class="st4" d="M153.13,98.13c0,3.49-0.06,5.89-0.25,8.63c0.69-0.06,1.53-0.15,2.56-0.15c1.03,0,1.88,0.09,2.56,0.15   c-0.19-2.74-0.25-5.14-0.25-8.63v-7.79c0-1.18,0-2.31,0.06-2.74c1.25,0,3.88,0.19,5.57,0.4c-0.09-0.47-0.16-0.9-0.16-1.37   c0-0.47,0.06-0.9,0.16-1.37c-2.66,0.09-4.06,0.15-7.94,0.15c-3.88,0-5.29-0.06-8.13-0.15c0.09,0.47,0.15,0.9,0.15,1.37   c0,0.47-0.06,0.9-0.15,1.37c1.87-0.22,4.5-0.4,5.72-0.4c0.09,0.44,0.09,1.56,0.09,2.74V98.13z"/>
	<path class="st0" d="M167.33,98.12c0,3.47-0.06,5.86-0.25,8.58c0.68-0.06,1.52-0.15,6.57-0.15c2.85,0,4.31,0.12,5.42,0.15   c-0.06-0.37-0.12-0.68-0.12-1.33c0-0.65,0.06-0.96,0.12-1.39c-2.39,0.28-4.77,0.4-7.09,0.4c-0.06-1.24-0.09-2.57-0.09-3.87   c0-1.33,0.03-2.66,0.03-3.97c2.35,0,4.68,0.09,7.03,0.28c-0.09-0.65-0.15-0.93-0.15-1.27c0-0.4,0.03-0.68,0.15-1.4   c-2.35,0.12-4.34,0.19-7.03,0.25c0-2.26,0-4.49,0.15-6.75c0.93,0,4.65,0.22,7,0.37c-0.06-0.46-0.12-0.74-0.12-1.4   c0-0.56,0.06-0.93,0.12-1.3c-0.84,0.09-3.44,0.15-6.47,0.15c-1.83,0-3.69-0.12-5.51-0.15c0.19,2.72,0.25,5.11,0.25,8.58V98.12z"/>
	<path class="st4" d="M167.27,98.13c0,3.49-0.06,5.89-0.25,8.64c0.69-0.06,1.54-0.16,6.64-0.16c2.88,0,4.36,0.13,5.48,0.16   c-0.06-0.37-0.13-0.69-0.13-1.34c0-0.65,0.06-0.97,0.13-1.4c-2.41,0.28-4.83,0.4-7.18,0.4c-0.06-1.25-0.09-2.59-0.09-3.9   c0-1.34,0.03-2.68,0.03-3.99c2.38,0,4.73,0.09,7.11,0.28c-0.09-0.65-0.16-0.94-0.16-1.28c0-0.41,0.03-0.69,0.16-1.4   c-2.38,0.13-4.39,0.19-7.11,0.25c0-2.28,0-4.52,0.15-6.79c0.94,0,4.7,0.22,7.08,0.37c-0.06-0.47-0.13-0.75-0.13-1.4   c0-0.56,0.06-0.94,0.13-1.31c-0.85,0.09-3.48,0.15-6.55,0.15c-1.85,0-3.73-0.13-5.58-0.15c0.19,2.74,0.25,5.14,0.25,8.63V98.13z"/>
	<path class="st0" d="M194.42,106.7c0.93-0.06,1.89-0.15,2.82-0.15c0.93,0,1.86,0.09,2.79,0.15c-2.26-3.5-4.61-7.03-6.6-10.53   c3.07-0.78,4.8-2.7,4.8-5.7c0-1.83-0.77-3.19-2.01-4.09c-1.08-0.78-2.23-1.05-5.36-1.05c-2.11,0-3.44,0.15-4.55,0.15   c-1.02,0-1.86-0.09-2.54-0.15c0.19,2.72,0.25,5.11,0.25,8.58v4.21c0,3.47-0.06,5.86-0.25,8.58c0.68-0.06,1.52-0.15,2.54-0.15   c1.02,0,1.86,0.09,2.54,0.15c-0.19-2.73-0.25-5.11-0.25-8.58v-1.27h0.28L194.42,106.7z M193.49,91.15c0,2.91-1.49,4.43-4.21,4.43   c-0.22,0-0.43-0.03-0.68-0.06c0-2.82,0.03-5.61,0.09-8.43C192.06,87.09,193.49,87.49,193.49,91.15"/>
	<path class="st4" d="M194.47,106.77c0.94-0.06,1.91-0.15,2.85-0.15c0.94,0,1.88,0.09,2.82,0.15c-2.29-3.52-4.67-7.07-6.67-10.6   c3.1-0.78,4.86-2.71,4.86-5.74c0-1.84-0.78-3.21-2.04-4.11c-1.09-0.78-2.25-1.06-5.42-1.06c-2.13,0-3.48,0.15-4.6,0.15   c-1.03,0-1.88-0.09-2.57-0.15c0.19,2.74,0.25,5.14,0.25,8.63v4.24c0,3.49-0.06,5.89-0.25,8.63c0.69-0.06,1.53-0.15,2.57-0.15   c1.03,0,1.88,0.09,2.57,0.15c-0.19-2.74-0.25-5.14-0.25-8.63v-1.28h0.28L194.47,106.77z M193.53,91.12c0,2.93-1.5,4.46-4.26,4.46   c-0.22,0-0.44-0.03-0.69-0.06c0-2.84,0.03-5.64,0.09-8.48C192.09,87.04,193.53,87.44,193.53,91.12z"/>
</g>
</svg>